<svg xmlns="http://www.w3.org/2000/svg" viewBox="0 0 500 500"><g id="freepik--Floor--inject-22"><path id="freepik--floor--inject-22" d="M102.2,451.87c81.65,45,214,45,295.66,0s81.64-117.86,0-162.82-214-45-295.66,0S20.56,406.91,102.2,451.87Z" style="fill:#f5f5f5"></path></g><g id="freepik--Shadows--inject-22"><path id="freepik--Shadow--inject-22" d="M85.54,420.16l6.12,3.53a6.67,6.67,0,0,0,6.06,0L278.51,319.31c1.68-1,1.68-2.53,0-3.5l-6.12-3.54a6.74,6.74,0,0,0-6.06,0L85.54,416.66C83.86,417.62,83.86,419.19,85.54,420.16Z" style="fill:#e0e0e0"></path><path id="freepik--shadow--inject-22" d="M351.07,390.49c17.69,9.24,46.37,9.25,64.06,0s17.68-24.22,0-33.46-46.37-9.24-64.06,0S333.38,381.25,351.07,390.49Z" style="fill:#e0e0e0"></path><path id="freepik--shadow--inject-22" d="M329.35,371.84c5.32,2.78,13.95,2.78,19.27,0s5.32-7.28,0-10.06-13.95-2.78-19.27,0S324,369.06,329.35,371.84Z" style="fill:#e0e0e0"></path></g><g id="freepik--Checklist--inject-22"><path d="M95.79,420.37,92,418.18a4.78,4.78,0,0,1-2.17-3.75V133.32A4.78,4.78,0,0,1,92,129.57L266.39,28.88a4.79,4.79,0,0,1,4.33,0l3.8,2.19a4.8,4.8,0,0,1,2.16,3.75V315.93a4.8,4.8,0,0,1-2.16,3.75L100.12,420.37A4.79,4.79,0,0,1,95.79,420.37Z" style="fill:#007EA7"></path><path d="M276.66,34.47c-.15-1.12-1.06-1.53-2.14-.9L100.12,134.26a4.4,4.4,0,0,0-1.53,1.61l-8.13-4.69A4.48,4.48,0,0,1,92,129.57L266.39,28.88a4.79,4.79,0,0,1,4.33,0l3.8,2.19A4.85,4.85,0,0,1,276.66,34.47Z" style="fill:#fff;opacity:0.4"></path><path d="M99.74,420.55a.35.35,0,0,1-.13.05l-.22.08-.09,0-.4.1h-.05a4.88,4.88,0,0,1-2.58-.21,3.51,3.51,0,0,1-.48-.22L92,418.19a4.81,4.81,0,0,1-2.16-3.75V133.32a4.47,4.47,0,0,1,.63-2.14l8.13,4.69A4.37,4.37,0,0,0,98,138V419.13a1.8,1.8,0,0,0,.33,1.14,1.13,1.13,0,0,0,1.16.37Z" style="opacity:0.15"></path><path d="M222.21,80.64l-.32-.19-3.6-2.07a13.51,13.51,0,0,0-4.2-1.49c-.62-.14-1.18-.3-1.67-.46a13,13,0,0,1-1.59-.65l.27-.33h0L207,73.09h0a4.13,4.13,0,0,0-1.07-.43c-1.53-.37-3.82.52-6.11.26a5.74,5.74,0,0,1-4.15-2.47c-1.39-1.87-2.23-5.15-3.46-7.86L193.31,61l-.34-.19-3.73-2.16a4.06,4.06,0,0,0-2.08-.56,8,8,0,0,0-3.91,1.27c-8.93,5.16-9.23,17.41-12.45,25.46s-7.77,10.58-10.25,14-2.65,6-8.14,13.6-5.71,9.42-5.71,10.85v11.28l4.06,2.34,73.09-42.21Zm-67,43.47c-.95.54-1.73-.19-1.73-1.66a4.59,4.59,0,0,1,1.73-3.66c.95-.55,1.72.2,1.72,1.67A4.56,4.56,0,0,1,155.19,124.11ZM187.3,92.46c-2.4,1.39-4.5.6-5.63-1.72-2.83.55-4.94-2.19-4.94-6.89,0-5.54,2.92-11.71,6.52-13.79a3.67,3.67,0,0,1,5.62,1.72c2.84-.56,4.94,2.17,4.94,6.89C193.81,84.21,190.9,90.38,187.3,92.46Zm24.27-.91c-.95.55-1.72-.19-1.72-1.65a4.55,4.55,0,0,1,1.72-3.65c1-.55,1.73.19,1.73,1.66A4.52,4.52,0,0,1,211.57,91.55Z" style="fill:#455a64"></path><path d="M154.82,126.12,147,121.59a5.5,5.5,0,0,0-.26,1.75v11.28l4.06,2.34,4.06-2.35Z" style="fill:#37474f;opacity:0.5"></path><path d="M162.94,112.05l4.06-9.38-6.45-3.79h0c-1.9,2.62-2.45,4.73-5,8.9Z" style="fill:#37474f;opacity:0.5"></path><path d="M179.19,93.29l.53-2.73c-1.8-.76-3-3.18-3-6.71,0-4.71,2.11-9.86,5-12.58L176.05,68c-2.4,5.47-3.29,11.92-5.25,16.82a30.54,30.54,0,0,1-1.31,2.85Z" style="fill:#37474f;opacity:0.5"></path><path d="M222.21,80.64l-.32-.19a16,16,0,0,0-3.75-1.22,11.73,11.73,0,0,1-5.72-2.8,8.34,8.34,0,0,0-1.32-1A3.83,3.83,0,0,0,210,75c-2.46-.59-6.94,2.09-10.16-2.08l-.1-.13c-2.25-3-3.07-9.79-6.44-11.78l-.34-.19c-1.39-.65-3.2-.53-5.67.89-8.93,5.16-9.23,17.41-12.45,25.46s-7.77,10.58-10.25,14-2.64,6-8.14,13.6-5.7,9.42-5.7,10.85V137l73.09-42.21V83.48A2.85,2.85,0,0,0,222.21,80.64Zm-63,45.81c-1,.55-1.72-.19-1.72-1.66a4.58,4.58,0,0,1,1.72-3.66c1-.55,1.72.2,1.72,1.67A4.53,4.53,0,0,1,159.24,126.45Zm28.06-34c-2.4,1.39-4.5.6-5.63-1.72a10.4,10.4,0,0,1-.89-4.55c0-5.54,2.92-11.71,6.52-13.79a5.28,5.28,0,0,1,1.57-.62c2.84-.56,4.94,2.17,4.94,6.89C193.81,84.21,190.9,90.38,187.3,92.46Zm28.33,1.43c-1,.55-1.73-.19-1.73-1.65a4.52,4.52,0,0,1,1.73-3.65c1-.55,1.72.19,1.72,1.66A4.54,4.54,0,0,1,215.63,93.89Z" style="fill:#37474f"></path><path d="M193.81,78.67c0,5.54-2.91,11.71-6.51,13.79-2.4,1.39-4.5.6-5.63-1.72a5.07,5.07,0,0,0,1.58-.62c3.6-2.08,6.51-8.25,6.51-13.79a10.4,10.4,0,0,0-.89-4.55C191.71,71.22,193.81,74,193.81,78.67Z" style="fill:#263238"></path><path d="M159.24,126.44c-1,.55-1.73-.19-1.73-1.65a4.57,4.57,0,0,1,1.73-3.66c.95-.55,1.72.2,1.72,1.67a4.54,4.54,0,0,1-1.72,3.64" style="fill:#263238"></path><path d="M215.62,93.89c-1,.55-1.72-.19-1.72-1.65a4.57,4.57,0,0,1,1.72-3.66c1-.55,1.73.2,1.73,1.67a4.52,4.52,0,0,1-1.73,3.64" style="fill:#263238"></path><path d="M111.43,160.55,263.19,72.93a2.9,2.9,0,0,1,2.6,0l1.47.85a2.88,2.88,0,0,1,1.3,2.25V307.55a2.88,2.88,0,0,1-1.3,2.25L115.5,397.42a2.9,2.9,0,0,1-2.6,0l-1.47-.85a2.88,2.88,0,0,1-1.3-2.25V162.8A2.9,2.9,0,0,1,111.43,160.55Z" style="fill:#f5f5f5"></path><path d="M268.51,75.64c-.16-.53-.66-.7-1.25-.36L115.5,162.9a2.61,2.61,0,0,0-.92,1l-4.06-2.34a2.54,2.54,0,0,1,.92-1L263.2,72.94a2.82,2.82,0,0,1,2.59,0l1.47.84A2.88,2.88,0,0,1,268.51,75.64Z" style="fill:#fafafa"></path><path d="M115.19,397.56a2.42,2.42,0,0,1-.48.13l-.25,0a3.49,3.49,0,0,1-.79,0,2.42,2.42,0,0,1-.48-.13l-.29-.14-1.46-.84a2.87,2.87,0,0,1-1.3-2.25V162.81a2.56,2.56,0,0,1,.38-1.28l4.06,2.34a2.73,2.73,0,0,0-.38,1.28V396.67C114.2,397.38,114.62,397.73,115.19,397.56Z" style="fill:#e0e0e0"></path><path d="M234.37,105.73l-4-2.34a4.39,4.39,0,0,0-4.06.12c-4.72,2.08-6.76,3-9.2,4l-1.76.71c-.95.38-2.86.06-2.27-3.27l6.27-16.89-.09,0-4-2.3a1.77,1.77,0,0,0-.66-.23,2.87,2.87,0,0,0-.44,0c-2.57-.06-3.3-16.62-3.32-17.13h0l-.18-.1L206.72,66a4.39,4.39,0,0,0-2.24-.57,8.22,8.22,0,0,0-3.72,1c-6.17,3.24-12.4,12.84-13.92,21.46-1,5.44-6.43,13.81-9.59,16.89s-3.38,5.66-3.38,5.66l-2.46,13.94-.79,4.46c-.58,3.33-4,6.55-4,6.55L153.9,145c-8,6.62-10.22,13.3-11.75,21.57v.06c0,.29,0,.49.14.57a.14.14,0,0,0,.14,0h0l1.63-.93,87.58-50.51a1.92,1.92,0,0,0,.8-1.22s0,0,0,0,0,0,0,0c.5-3,2-8.67,2-8.67ZM209.05,80.14c-.94,5.3-4.76,11.21-8.56,13.2-2.62,1.37-4.53.52-5.17-1.89a3,3,0,0,1-2.87-.37c-1.22-1,9.94-20.11,10.85-19.69A3.24,3.24,0,0,1,205,73.68C208.11,72.73,209.89,75.38,209.05,80.14Z" style="fill:#455a64"></path><path d="M154.82,154.27l-6.38-3.69c-3.71,4.87-5.19,10-6.29,15.95v.06c0,.29,0,.49.14.57a.14.14,0,0,0,.14,0h0l5-4Z" style="fill:#37474f;opacity:0.5"></path><path d="M170.2,130.31l9,5.19,4.06-23.45-8.11-4.68a7.72,7.72,0,0,0-1.27,3.1l-2.46,13.94-.79,4.46A8.42,8.42,0,0,1,170.2,130.31Z" style="fill:#37474f;opacity:0.5"></path><path d="M191.1,76.72a34.82,34.82,0,0,0-4.26,11.2,27.9,27.9,0,0,1-3.18,8l7.72,4.46,3.83-8.86a3,3,0,0,1-2.76-.39c-.63-.5,2-5.8,4.86-10.78Z" style="fill:#37474f;opacity:0.5"></path><path d="M234.43,105.76l-.06,0a4.41,4.41,0,0,0-4,.13c-5.79,2.55-7.54,3.39-11,4.75-.92.37-2.77.07-2.29-3.06a1.52,1.52,0,0,1,0-.21l.79-4.46,2.19-12.15s.5-1.91-.77-2.63l-.09,0a2.36,2.36,0,0,0-1-.22,4.94,4.94,0,0,1-3.62-2.31,9.13,9.13,0,0,1-1.36-7c.92-5.21-.09-8.86-2.4-10.22l-.18-.11c-1.49-.79-3.49-.66-5.83.57-6.17,3.24-12.4,12.84-13.92,21.46-1,5.44-6.43,13.81-9.59,16.89s-3.38,5.66-3.38,5.66l-2.46,13.94-.79,4.46c-.58,3.33-4,6.55-4,6.55L158,147.31a30.68,30.68,0,0,0-10.47,15.85s-4.77,3.7-5.07,4h0s0,0,0,0h0l1.63-.93,87.83-50.49s1-.55,1.23-.69,3.76-3.48,3.76-3.48C236.74,108.69,235.9,106.64,234.43,105.76ZM209.05,80.14c-.94,5.3-4.76,11.21-8.56,13.2-2.62,1.37-4.53.52-5.17-1.89a10,10,0,0,1,0-4.11c.94-5.3,4.77-11.21,8.57-13.19a6.72,6.72,0,0,1,1.1-.47C208.11,72.73,209.89,75.38,209.05,80.14Z" style="fill:#37474f"></path><path d="M209.05,80.14c-.94,5.3-4.76,11.21-8.56,13.2-2.62,1.37-4.53.52-5.17-1.89a7.09,7.09,0,0,0,1.11-.46c3.8-2,7.63-7.9,8.56-13.2a9.86,9.86,0,0,0,0-4.11C208.11,72.73,209.89,75.38,209.05,80.14Z" style="fill:#263238"></path><path d="M205.38,73.9h0a2.08,2.08,0,0,1,1.84.89c1.57,2.24.06,7.94-.59,9.76-.91,2.54-6.8,8.49-8.42,8.49a4,4,0,0,1-2.66-1.7,10.09,10.09,0,0,1,0-4c.93-5.23,4.72-11.07,8.44-13a6,6,0,0,1,1-.45l.35,0m0-.25-.4,0a6.72,6.72,0,0,0-1.1.47c-3.8,2-7.63,7.89-8.57,13.19a10,10,0,0,0,0,4.11,4.25,4.25,0,0,0,2.88,1.84h0c1.76,0,7.68-6,8.63-8.65s3-11-1.48-11Z" style="fill:#263238"></path><path d="M142.43,167.17l89.46-51.43,1.24-.69c.22-.13,3.76-3.49,3.76-3.49l-89.4,51.6S142.07,167.35,142.43,167.17Z" style="fill:#263238"></path><polygon points="126.56 190.56 150.76 176.38 150.76 204.53 126.56 218.7 126.56 190.56" style="fill:#fafafa"></polygon><path d="M127.56,191.13V217l22.2-13V178.13Zm-1,28.57a1.06,1.06,0,0,1-.5-.13,1,1,0,0,1-.5-.87V190.56a1,1,0,0,1,.49-.87l24.2-14.17a1,1,0,0,1,1,0,1,1,0,0,1,.5.86v28.15a1,1,0,0,1-.5.86l-24.2,14.17A1,1,0,0,1,126.56,219.7Z" style="fill:#455a64"></path><path d="M162.94,170.34v2c0,1.11.78,1.56,1.73,1l85.9-49.58a3.85,3.85,0,0,0,1.74-3v-2.05c0-1.1-.78-1.55-1.74-1l-85.9,49.6A3.83,3.83,0,0,0,162.94,170.34Z" style="fill:#e0e0e0"></path><path d="M162.94,182.63v2c0,1.1.78,1.55,1.73,1l85.9-49.59a3.83,3.83,0,0,0,1.74-3v-2c0-1.11-.78-1.56-1.74-1l-85.9,49.59A3.83,3.83,0,0,0,162.94,182.63Z" style="fill:#e0e0e0"></path><path d="M162.94,194.85v2c0,1.1.78,1.55,1.73,1l85.9-49.59a3.82,3.82,0,0,0,1.74-3v-2c0-1.1-.78-1.55-1.74-1l-85.9,49.59A3.86,3.86,0,0,0,162.94,194.85Z" style="fill:#e0e0e0"></path><polygon points="139.06 204.94 133.43 199.53 135.86 194.39 139.06 197.48 152.39 169.26 154.82 171.59 139.06 204.94" style="fill:#007EA7"></polygon><polygon points="126.56 242.15 150.76 227.98 150.76 256.12 126.56 270.29 126.56 242.15" style="fill:#fafafa"></polygon><path d="M127.56,242.72v25.83l22.2-13V229.72Zm-1,28.57a1,1,0,0,1-.5-.13,1,1,0,0,1-.5-.87V242.15a1,1,0,0,1,.49-.86l24.2-14.17a1,1,0,0,1,1.51.86v28.14a1,1,0,0,1-.5.87l-24.2,14.17A1,1,0,0,1,126.56,271.29Z" style="fill:#455a64"></path><path d="M162.94,221.93v2c0,1.1.78,1.55,1.73,1l85.9-49.59a3.82,3.82,0,0,0,1.74-3v-2c0-1.11-.78-1.55-1.74-1l-85.9,49.59A3.86,3.86,0,0,0,162.94,221.93Z" style="fill:#e0e0e0"></path><path d="M162.94,234.23v2c0,1.11.78,1.55,1.73,1l85.9-49.59a3.82,3.82,0,0,0,1.74-3v-2c0-1.1-.78-1.55-1.74-1l-85.9,49.6A3.83,3.83,0,0,0,162.94,234.23Z" style="fill:#e0e0e0"></path><path d="M162.94,246.45v2c0,1.1.78,1.55,1.73,1l85.9-49.59a3.83,3.83,0,0,0,1.74-3v-2c0-1.11-.78-1.56-1.74-1l-85.9,49.59A3.85,3.85,0,0,0,162.94,246.45Z" style="fill:#e0e0e0"></path><polygon points="139.06 256.54 133.43 251.12 135.86 245.99 139.06 249.07 152.39 220.85 154.82 223.19 139.06 256.54" style="fill:#007EA7"></polygon><polygon points="126.56 293.75 150.76 279.57 150.76 307.72 126.56 321.89 126.56 293.75" style="fill:#fafafa"></polygon><path d="M127.56,294.32v25.83l22.2-13V281.32Zm-1,28.57a1,1,0,0,1-.5-.13,1,1,0,0,1-.5-.87V293.75a1,1,0,0,1,.49-.87l24.2-14.17a1,1,0,0,1,1.51.87v28.14a1,1,0,0,1-.5.86l-24.2,14.17A1,1,0,0,1,126.56,322.89Z" style="fill:#455a64"></path><path d="M162.94,273.53v2c0,1.1.78,1.55,1.73,1L250.57,227a3.83,3.83,0,0,0,1.74-3v-2c0-1.11-.78-1.56-1.74-1l-85.9,49.59A3.85,3.85,0,0,0,162.94,273.53Z" style="fill:#e0e0e0"></path><path d="M162.94,285.82v2c0,1.1.78,1.55,1.73,1l85.9-49.59a3.82,3.82,0,0,0,1.74-3v-2c0-1.11-.78-1.55-1.74-1l-85.9,49.59A3.85,3.85,0,0,0,162.94,285.82Z" style="fill:#e0e0e0"></path><path d="M162.94,298.05v2c0,1.11.78,1.55,1.73,1l85.9-49.59a3.81,3.81,0,0,0,1.74-3v-2.05c0-1.1-.78-1.55-1.74-1l-85.9,49.6A3.83,3.83,0,0,0,162.94,298.05Z" style="fill:#e0e0e0"></path><polygon points="126.56 345.34 150.76 331.17 150.76 359.32 126.56 373.49 126.56 345.34" style="fill:#fafafa"></polygon><path d="M127.56,345.92v25.82l22.2-13V332.92Zm-1,28.57a1,1,0,0,1-1-1V345.34a1,1,0,0,1,.49-.86l24.2-14.17a1,1,0,0,1,1,0,1,1,0,0,1,.5.87v28.15a1,1,0,0,1-.5.86l-24.2,14.17A1,1,0,0,1,126.56,374.49Z" style="fill:#455a64"></path><path d="M162.94,325.13v2c0,1.11.78,1.55,1.73,1l85.9-49.59a3.82,3.82,0,0,0,1.74-3v-2c0-1.1-.78-1.55-1.74-1l-85.9,49.6A3.83,3.83,0,0,0,162.94,325.13Z" style="fill:#e0e0e0"></path><path d="M162.94,337.42v2c0,1.11.78,1.56,1.73,1l85.9-49.58a3.85,3.85,0,0,0,1.74-3v-2.05c0-1.1-.78-1.55-1.74-1l-85.9,49.6A3.83,3.83,0,0,0,162.94,337.42Z" style="fill:#e0e0e0"></path><path d="M162.94,349.64v2c0,1.1.78,1.55,1.73,1l85.9-49.59a3.82,3.82,0,0,0,1.74-3v-2c0-1.11-.78-1.55-1.74-1l-85.9,49.59A3.86,3.86,0,0,0,162.94,349.64Z" style="fill:#e0e0e0"></path></g></svg>