<svg xmlns="http://www.w3.org/2000/svg" xmlns:xlink="http://www.w3.org/1999/xlink" viewBox="0 0 500 500"><defs><clipPath id="freepik--clip-path--inject-21"><path d="M391,183.89c-4.62.54-16.59,8.7-17.41,9.52s-4.08,2.72-5.44,3.81c0,0-28,17.41-30.47,19s-7.34,4.9-7.07,6-14.42,25-14.42,25-4.35,5.72-.27,10.88,7.89,1.64,9.79.55,16.87-15.24,16.87-15.24l13.8,33s19.11-12.81,39.52-12l-13.61-53.32s18.78-14.14,19.32-19S395.65,183.34,391,183.89Z" style="fill:#fff;stroke:#263238;stroke-linecap:round;stroke-linejoin:round"></path></clipPath></defs><g id="freepik--background-simple--inject-21"><path d="M415.83,230.1a201.81,201.81,0,0,0-33.63-95.78c-30.74-45.45-80.91-70-135.49-56.62C195.1,90.36,182,146.24,139,171c-33,19-83,50-75,105,2.61,17.93,14.48,31,30.76,38.37,22.26,10.05,53.39,6,73.24,20.63,23,17,42,41,92,59,39.55,14.24,84.15-2.8,114-29.75C410.82,331.08,420,277.59,415.83,230.1Z" style="fill:#007EA7"></path><path d="M415.83,230.1a201.81,201.81,0,0,0-33.63-95.78c-30.74-45.45-80.91-70-135.49-56.62C195.1,90.36,182,146.24,139,171c-33,19-83,50-75,105,2.61,17.93,14.48,31,30.76,38.37,22.26,10.05,53.39,6,73.24,20.63,23,17,42,41,92,59,39.55,14.24,84.15-2.8,114-29.75C410.82,331.08,420,277.59,415.83,230.1Z" style="fill:#fff;opacity:0.7000000000000001"></path></g><g id="freepik--Shadow--inject-21"><path d="M430.44,410.52l-6.8-6.72c5.66-8.2,3.22-14.24-1.64-19.8-2.93-3.35-10.59-2.84-20-1.63L350,331l-8,3s21.64,26.35,41.91,50.58c-8.42.75-16.89.76-23.91-1.58-21-7-38-22-38-22-24,2,12,41,26,52,28,22,42.88,18,62.76,3.18,3.57,4.08,6.15,6.89,7.24,7.82l.21.18C427.17,431.62,438.72,418.71,430.44,410.52Z" style="fill:#007EA7"></path><path d="M430.44,410.52l-6.8-6.72c5.66-8.2,3.22-14.24-1.64-19.8-2.93-3.35-10.59-2.84-20-1.63L350,331l-8,3s21.64,26.35,41.91,50.58c-8.42.75-16.89.76-23.91-1.58-21-7-38-22-38-22-24,2,11.24,42.05,26,52,33,22.22,42.88,18,62.76,3.18,3.57,4.08,6.15,6.89,7.24,7.82l.21.18C427.17,431.62,438.72,418.71,430.44,410.52Z" style="fill:#fff;opacity:0.5"></path></g><g id="freepik--Checklist--inject-21"><path d="M377.2,329.43,228.65,371.24a7.77,7.77,0,0,1-8.49-3.5L107.51,165a4.41,4.41,0,0,1,2.83-6.68l148.55-41.81a7.75,7.75,0,0,1,8.48,3.49L380,322.74A4.42,4.42,0,0,1,377.2,329.43Z" style="fill:#263238;stroke:#000;stroke-miterlimit:10"></path><path d="M226.56,362.35s85.84-20.42,143.62-40.43Z" style="fill:#884849"></path><polygon points="370.18 321.92 226.56 362.35 115.47 162.43 259.09 122.01 370.18 321.92" style="fill:#fff;stroke:#263238;stroke-miterlimit:10"></polygon><line x1="216.55" y1="164.35" x2="227.7" y2="161.21" style="fill:#fff;stroke:#263238;stroke-miterlimit:10"></line><line x1="139.21" y1="186.12" x2="207.92" y2="166.78" style="fill:#fff;stroke:#263238;stroke-miterlimit:10"></line><line x1="204.32" y1="176.77" x2="232.02" y2="168.97" style="fill:#fff;stroke:#263238;stroke-miterlimit:10"></line><line x1="161.87" y1="188.72" x2="196.76" y2="178.9" style="fill:#fff;stroke:#263238;stroke-miterlimit:10"></line><line x1="143.52" y1="193.88" x2="155.39" y2="190.54" style="fill:#fff;stroke:#263238;stroke-miterlimit:10"></line><line x1="182.37" y1="191.93" x2="236.34" y2="176.74" style="fill:#fff;stroke:#263238;stroke-miterlimit:10"></line><line x1="147.84" y1="201.65" x2="170.5" y2="195.27" style="fill:#fff;stroke:#263238;stroke-miterlimit:10"></line><path d="M266.56,158.5a12.85,12.85,0,0,0-14-5.78c-5.17,1.46-7.26,6.4-4.68,11.05a12.82,12.82,0,0,0,14,5.78C267,168.1,269.14,163.15,266.56,158.5Z" style="fill:#fff;stroke:#263238;stroke-miterlimit:10"></path><line x1="169.6" y1="217.6" x2="158.45" y2="220.74" style="fill:#fff;stroke:#263238;stroke-miterlimit:10"></line><line x1="246.94" y1="195.83" x2="178.23" y2="215.17" style="fill:#fff;stroke:#263238;stroke-miterlimit:10"></line><line x1="190.46" y1="220.71" x2="162.76" y2="228.51" style="fill:#fff;stroke:#263238;stroke-miterlimit:10"></line><line x1="232.91" y1="208.76" x2="198.02" y2="218.58" style="fill:#fff;stroke:#263238;stroke-miterlimit:10"></line><line x1="251.26" y1="203.6" x2="239.39" y2="206.94" style="fill:#fff;stroke:#263238;stroke-miterlimit:10"></line><line x1="221.04" y1="221.08" x2="167.08" y2="236.27" style="fill:#fff;stroke:#263238;stroke-miterlimit:10"></line><line x1="255.58" y1="211.36" x2="232.91" y2="217.74" style="fill:#fff;stroke:#263238;stroke-miterlimit:10"></line><path d="M285.8,193.13a12.82,12.82,0,0,0-14-5.78c-5.17,1.45-7.26,6.4-4.68,11a12.81,12.81,0,0,0,14,5.78C286.28,202.72,288.38,197.77,285.8,193.13Z" style="fill:#fff;stroke:#263238;stroke-miterlimit:10"></path><line x1="255.03" y1="233.59" x2="266.18" y2="230.45" style="fill:#fff;stroke:#263238;stroke-miterlimit:10"></line><line x1="177.69" y1="255.36" x2="246.4" y2="236.02" style="fill:#fff;stroke:#263238;stroke-miterlimit:10"></line><line x1="242.8" y1="246.02" x2="270.5" y2="238.22" style="fill:#fff;stroke:#263238;stroke-miterlimit:10"></line><line x1="200.35" y1="257.97" x2="235.24" y2="248.14" style="fill:#fff;stroke:#263238;stroke-miterlimit:10"></line><line x1="182" y1="263.13" x2="193.87" y2="259.79" style="fill:#fff;stroke:#263238;stroke-miterlimit:10"></line><line x1="220.85" y1="261.17" x2="274.81" y2="245.99" style="fill:#fff;stroke:#263238;stroke-miterlimit:10"></line><line x1="186.32" y1="270.9" x2="208.98" y2="264.52" style="fill:#fff;stroke:#263238;stroke-miterlimit:10"></line><ellipse cx="295.68" cy="230.38" rx="8.48" ry="10.73" transform="translate(-26.91 421.27) rotate(-68.54)" style="fill:#fff;stroke:#263238;stroke-miterlimit:10"></ellipse><line x1="208.08" y1="286.85" x2="196.93" y2="289.99" style="fill:#fff;stroke:#263238;stroke-miterlimit:10"></line><line x1="285.42" y1="265.08" x2="216.71" y2="284.42" style="fill:#fff;stroke:#263238;stroke-miterlimit:10"></line><line x1="228.94" y1="289.96" x2="201.24" y2="297.75" style="fill:#fff;stroke:#263238;stroke-miterlimit:10"></line><line x1="271.39" y1="278.01" x2="236.5" y2="287.83" style="fill:#fff;stroke:#263238;stroke-miterlimit:10"></line><line x1="289.74" y1="272.84" x2="277.87" y2="276.18" style="fill:#fff;stroke:#263238;stroke-miterlimit:10"></line><line x1="259.52" y1="290.33" x2="205.56" y2="305.52" style="fill:#fff;stroke:#263238;stroke-miterlimit:10"></line><line x1="294.05" y1="280.61" x2="271.39" y2="286.99" style="fill:#fff;stroke:#263238;stroke-miterlimit:10"></line><path d="M324.27,262.37a12.83,12.83,0,0,0-14-5.78c-5.17,1.46-7.26,6.4-4.68,11.05a12.82,12.82,0,0,0,14,5.78C324.76,272,326.86,267,324.27,262.37Z" style="fill:#fff;stroke:#263238;stroke-miterlimit:10"></path><line x1="293.51" y1="302.84" x2="304.66" y2="299.7" style="fill:#fff;stroke:#263238;stroke-miterlimit:10"></line><line x1="216.17" y1="324.61" x2="284.88" y2="305.27" style="fill:#fff;stroke:#263238;stroke-miterlimit:10"></line><line x1="281.28" y1="315.26" x2="308.98" y2="307.47" style="fill:#fff;stroke:#263238;stroke-miterlimit:10"></line><line x1="238.83" y1="327.21" x2="273.72" y2="317.39" style="fill:#fff;stroke:#263238;stroke-miterlimit:10"></line><line x1="220.48" y1="332.38" x2="232.35" y2="329.03" style="fill:#fff;stroke:#263238;stroke-miterlimit:10"></line><line x1="259.33" y1="330.42" x2="313.29" y2="315.23" style="fill:#fff;stroke:#263238;stroke-miterlimit:10"></line><line x1="224.8" y1="340.14" x2="247.46" y2="333.76" style="fill:#fff;stroke:#263238;stroke-miterlimit:10"></line><ellipse cx="334.16" cy="299.63" rx="8.48" ry="10.73" transform="translate(-66.96 500.99) rotate(-68.54)" style="fill:#fff;stroke:#263238;stroke-miterlimit:10"></ellipse><path d="M210.47,125.4l-18.88,5.31c-1.43.06-3-.05-3.44-.78-1-1.88.28-3.64.68-5.3A7.6,7.6,0,0,0,188,119a13.17,13.17,0,0,0-14.39-5.93c-5.3,1.5-7.44,6.57-4.8,11.33a12.41,12.41,0,0,0,5.56,5s3.83,1.71,4.6,3.09c.41.73-.66,1.59-1.75,2.24l-20.35,5.73a4.86,4.86,0,0,0-3.11,7.35l2.75,4.94,66.07-18.59-2.75-4.95A8.53,8.53,0,0,0,210.47,125.4Zm-33.63-6.46a4.21,4.21,0,0,1,4.61,1.9,2.39,2.39,0,0,1-1.54,3.62,4.2,4.2,0,0,1-4.6-1.89A2.4,2.4,0,0,1,176.84,118.94Z" style="fill:#007EA7;stroke:#263238;stroke-miterlimit:10"></path><polyline points="251.21 159.08 259.36 164.77 267.76 145.94" style="fill:none;stroke:#007EA7;stroke-linecap:round;stroke-linejoin:round;stroke-width:6px"></polyline><polyline points="270.15 193.17 278.3 198.85 286.7 180.03" style="fill:none;stroke:#007EA7;stroke-linecap:round;stroke-linejoin:round;stroke-width:6px"></polyline></g></svg>